<mxfile host="app.diagrams.net" modified="2021-06-08T20:25:45.457Z" agent="5.0 (Windows NT 10.0; Win64; x64) AppleWebKit/537.36 (KHTML, like Gecko) Chrome/90.0.4430.214 Safari/537.36" etag="sWIP1TtNVv2VpeSEqTdt" version="14.7.6" type="github">
  <diagram id="YS_d5s-tRnfbMUzOGX-u" name="Page-1">
    <mxGraphModel dx="567" dy="930" grid="1" gridSize="10" guides="1" tooltips="1" connect="1" arrows="1" fold="1" page="1" pageScale="1" pageWidth="850" pageHeight="1100" math="0" shadow="0">
      <root>
        <mxCell id="0" />
        <mxCell id="1" parent="0" />
        <mxCell id="M8DS-Lg7McYjt34nxBsJ-20" value="" style="edgeStyle=orthogonalEdgeStyle;rounded=0;orthogonalLoop=1;jettySize=auto;html=1;" edge="1" parent="1" source="M8DS-Lg7McYjt34nxBsJ-1" target="M8DS-Lg7McYjt34nxBsJ-2">
          <mxGeometry relative="1" as="geometry" />
        </mxCell>
        <mxCell id="M8DS-Lg7McYjt34nxBsJ-1" value="Start" style="rounded=1;whiteSpace=wrap;html=1;" vertex="1" parent="1">
          <mxGeometry x="365" y="10" width="120" height="60" as="geometry" />
        </mxCell>
        <mxCell id="M8DS-Lg7McYjt34nxBsJ-2" value="CreateArenaW&lt;br&gt;создание отряда" style="rounded=1;whiteSpace=wrap;html=1;" vertex="1" parent="1">
          <mxGeometry x="365" y="120" width="120" height="60" as="geometry" />
        </mxCell>
        <mxCell id="M8DS-Lg7McYjt34nxBsJ-3" value="&lt;span&gt;AccountW&lt;/span&gt;&lt;br&gt;&lt;span&gt;шаблон воина&lt;/span&gt;" style="rounded=1;whiteSpace=wrap;html=1;" vertex="1" parent="1">
          <mxGeometry x="180" y="60" width="120" height="60" as="geometry" />
        </mxCell>
        <mxCell id="M8DS-Lg7McYjt34nxBsJ-4" value="UserW&lt;br&gt;шаблон отряда" style="rounded=1;whiteSpace=wrap;html=1;" vertex="1" parent="1">
          <mxGeometry x="180" y="180" width="120" height="60" as="geometry" />
        </mxCell>
        <mxCell id="M8DS-Lg7McYjt34nxBsJ-5" value="RandomW&lt;br&gt;случайные события" style="rounded=1;whiteSpace=wrap;html=1;" vertex="1" parent="1">
          <mxGeometry x="550" y="200" width="120" height="60" as="geometry" />
        </mxCell>
        <mxCell id="M8DS-Lg7McYjt34nxBsJ-21" value="" style="edgeStyle=orthogonalEdgeStyle;rounded=0;orthogonalLoop=1;jettySize=auto;html=1;" edge="1" parent="1" source="M8DS-Lg7McYjt34nxBsJ-6" target="M8DS-Lg7McYjt34nxBsJ-22">
          <mxGeometry relative="1" as="geometry">
            <mxPoint x="425" y="400" as="targetPoint" />
          </mxGeometry>
        </mxCell>
        <mxCell id="M8DS-Lg7McYjt34nxBsJ-6" value="CreateRound&lt;br&gt;бой отрядов" style="rounded=1;whiteSpace=wrap;html=1;" vertex="1" parent="1">
          <mxGeometry x="365" y="280" width="120" height="60" as="geometry" />
        </mxCell>
        <mxCell id="M8DS-Lg7McYjt34nxBsJ-7" value="BattleService&lt;br&gt;логика боя" style="rounded=1;whiteSpace=wrap;html=1;" vertex="1" parent="1">
          <mxGeometry x="180" y="280" width="120" height="60" as="geometry" />
        </mxCell>
        <mxCell id="M8DS-Lg7McYjt34nxBsJ-8" value="Finish" style="rounded=1;whiteSpace=wrap;html=1;" vertex="1" parent="1">
          <mxGeometry x="365" y="530" width="120" height="60" as="geometry" />
        </mxCell>
        <mxCell id="M8DS-Lg7McYjt34nxBsJ-9" value="" style="endArrow=classic;html=1;entryX=0.311;entryY=-0.031;entryDx=0;entryDy=0;entryPerimeter=0;exitX=1;exitY=0.5;exitDx=0;exitDy=0;" edge="1" parent="1" source="M8DS-Lg7McYjt34nxBsJ-3" target="M8DS-Lg7McYjt34nxBsJ-2">
          <mxGeometry width="50" height="50" relative="1" as="geometry">
            <mxPoint x="300" y="100" as="sourcePoint" />
            <mxPoint x="440" y="100" as="targetPoint" />
            <Array as="points">
              <mxPoint x="350" y="90" />
              <mxPoint x="402" y="90" />
            </Array>
          </mxGeometry>
        </mxCell>
        <mxCell id="M8DS-Lg7McYjt34nxBsJ-11" value="" style="endArrow=classic;html=1;entryX=0.311;entryY=-0.031;entryDx=0;entryDy=0;entryPerimeter=0;" edge="1" parent="1">
          <mxGeometry width="50" height="50" relative="1" as="geometry">
            <mxPoint x="587" y="200" as="sourcePoint" />
            <mxPoint x="485" y="153.86" as="targetPoint" />
            <Array as="points">
              <mxPoint x="587" y="153.86" />
              <mxPoint x="535" y="153.86" />
            </Array>
          </mxGeometry>
        </mxCell>
        <mxCell id="M8DS-Lg7McYjt34nxBsJ-16" value="" style="endArrow=classic;html=1;entryX=0.293;entryY=0.995;entryDx=0;entryDy=0;entryPerimeter=0;exitX=0.994;exitY=0.675;exitDx=0;exitDy=0;exitPerimeter=0;" edge="1" parent="1" source="M8DS-Lg7McYjt34nxBsJ-4" target="M8DS-Lg7McYjt34nxBsJ-2">
          <mxGeometry width="50" height="50" relative="1" as="geometry">
            <mxPoint x="300" y="200" as="sourcePoint" />
            <mxPoint x="350" y="150" as="targetPoint" />
            <Array as="points">
              <mxPoint x="330" y="220" />
              <mxPoint x="350" y="220" />
              <mxPoint x="360" y="220" />
              <mxPoint x="400" y="220" />
            </Array>
          </mxGeometry>
        </mxCell>
        <mxCell id="M8DS-Lg7McYjt34nxBsJ-17" value="" style="endArrow=classic;html=1;exitX=1;exitY=0.5;exitDx=0;exitDy=0;entryX=0;entryY=0.5;entryDx=0;entryDy=0;" edge="1" parent="1" source="M8DS-Lg7McYjt34nxBsJ-7" target="M8DS-Lg7McYjt34nxBsJ-6">
          <mxGeometry width="50" height="50" relative="1" as="geometry">
            <mxPoint x="290" y="360" as="sourcePoint" />
            <mxPoint x="340" y="310" as="targetPoint" />
          </mxGeometry>
        </mxCell>
        <mxCell id="M8DS-Lg7McYjt34nxBsJ-18" value="" style="endArrow=classic;html=1;exitX=0.5;exitY=1;exitDx=0;exitDy=0;entryX=0.5;entryY=0;entryDx=0;entryDy=0;" edge="1" parent="1" source="M8DS-Lg7McYjt34nxBsJ-2" target="M8DS-Lg7McYjt34nxBsJ-6">
          <mxGeometry width="50" height="50" relative="1" as="geometry">
            <mxPoint x="290" y="360" as="sourcePoint" />
            <mxPoint x="340" y="310" as="targetPoint" />
          </mxGeometry>
        </mxCell>
        <mxCell id="M8DS-Lg7McYjt34nxBsJ-19" value="" style="endArrow=classic;html=1;entryX=0.311;entryY=-0.031;entryDx=0;entryDy=0;entryPerimeter=0;exitX=0.305;exitY=1.039;exitDx=0;exitDy=0;exitPerimeter=0;" edge="1" parent="1" source="M8DS-Lg7McYjt34nxBsJ-5">
          <mxGeometry width="50" height="50" relative="1" as="geometry">
            <mxPoint x="587" y="356.14" as="sourcePoint" />
            <mxPoint x="485" y="310.0000000000001" as="targetPoint" />
            <Array as="points">
              <mxPoint x="587" y="310" />
              <mxPoint x="535" y="310" />
            </Array>
          </mxGeometry>
        </mxCell>
        <mxCell id="M8DS-Lg7McYjt34nxBsJ-23" value="" style="edgeStyle=orthogonalEdgeStyle;rounded=0;orthogonalLoop=1;jettySize=auto;html=1;" edge="1" parent="1" source="M8DS-Lg7McYjt34nxBsJ-22" target="M8DS-Lg7McYjt34nxBsJ-8">
          <mxGeometry relative="1" as="geometry" />
        </mxCell>
        <mxCell id="M8DS-Lg7McYjt34nxBsJ-22" value="Логирование в файл" style="rounded=1;whiteSpace=wrap;html=1;" vertex="1" parent="1">
          <mxGeometry x="365" y="400" width="120" height="60" as="geometry" />
        </mxCell>
      </root>
    </mxGraphModel>
  </diagram>
</mxfile>
